<?xml version="1.0" encoding="utf-8"?>
<!-- Generator: Adobe Illustrator 16.0.0, SVG Export Plug-In . SVG Version: 6.00 Build 0)  -->
<!DOCTYPE svg PUBLIC "-//W3C//DTD SVG 1.1//EN" "http://www.w3.org/Graphics/SVG/1.1/DTD/svg11.dtd">
<svg version="1.1" id="Layer_1" xmlns="http://www.w3.org/2000/svg" xmlns:xlink="http://www.w3.org/1999/xlink" x="0px" y="0px"
	 width="512px" height="512px" viewBox="0 0 512 512" style="enable-background:new 0 0 512 512;" xml:space="preserve">
<style type="text/css">
<![CDATA[
	.st0{opacity:0.1;fill:#010101;}
	.st1{opacity:0.8;fill-rule:evenodd;clip-rule:evenodd;fill:#FFFFFF;}
	.st2{fill:#E2E2E2;}
	.st3{fill:#E43A26;}
	.st4{opacity:0.3;fill:#FFFFFF;}
	.st5{fill:#E66125;}
	.st6{fill:#4C4D4C;}
	.st7{fill:#19B0BF;}
	.st8{fill:#E8E8E6;}
	.st9{fill:#E8E8E8;}
	.st10{fill:#1A1A1A;}
	.st11{fill:#EAEAEA;}
	.st12{opacity:0.3;fill:#010101;}
	.st13{opacity:0.3;fill-rule:evenodd;clip-rule:evenodd;fill:#010101;}
	.st14{fill-rule:evenodd;clip-rule:evenodd;fill:#E64D3C;}
	.st15{fill:#213C52;}
	.st16{fill:#223766;}
	.st17{fill:#F15757;}
	.st18{opacity:0.5;fill:#FFFFFF;}
	.st19{fill-rule:evenodd;clip-rule:evenodd;fill:#EA844B;}
	.st20{fill:#29B99A;}
	.st21{fill:#F99D20;}
	.st22{fill:#C1D82F;}
	.st23{opacity:0.5;fill-rule:evenodd;clip-rule:evenodd;fill:#FFFFFF;}
	.st24{opacity:0.6;fill:#111111;}
	.st25{fill:#2DBCAD;}
	.st26{fill:#99C93C;}
	.st27{opacity:0.4;}
	.st28{fill:#60C197;}
	.st29{fill:#FFFFFF;}
	.st30{opacity:0.5;fill:#010101;}
	.st31{fill-rule:evenodd;clip-rule:evenodd;fill:#5A5A5A;}
	.st32{fill:#CDCCCC;}
	.st33{opacity:0.2;fill:#010101;}
	.st34{fill:#CFCFCE;}
	.st35{opacity:0.5;fill-rule:evenodd;clip-rule:evenodd;fill:#010101;}
	.st36{fill:#364A5E;}
	.st37{opacity:0.4;fill:#FFFFFF;}
	.st38{fill:#3A3939;}
	.st39{opacity:0.7;fill:#010101;}
	.st40{fill-rule:evenodd;clip-rule:evenodd;fill:#CFCFCE;}
	.st41{fill-rule:evenodd;clip-rule:evenodd;fill:#333333;}
	.st42{fill-rule:evenodd;clip-rule:evenodd;fill:#346767;}
	.st43{fill:#A5A5A5;}
	.st44{opacity:0.4;fill:#010101;}
	.st45{opacity:0.5;fill:#4C4D4C;}
	.st46{fill:#DEC324;}
	.st47{fill-rule:evenodd;clip-rule:evenodd;fill:#033434;}
]]>
</style>
<circle class="st10" cx="256.179" cy="256" r="256"/>
<g>
	<g id="Setting_System_3_">
		<g id="Setting_System_4_">
			<g id="Line_1_">
				<g>
					<path class="st9" d="M403.001,268.494l5.002,0.426c0,0,0.06-0.806,0.149-2.016c0.049-0.606,0.103-1.314,0.158-2.068
						c0.03-0.38,0.057-0.771,0.084-1.17c0.012-0.398,0.022-0.8,0.034-1.206c0.08-3.236,0.164-6.472,0.164-6.472h-5.021
						c0,0-0.08,3.13-0.155,6.258c-0.013,0.392-0.021,0.784-0.03,1.17c-0.03,0.384-0.058,0.762-0.084,1.126
						c-0.056,0.734-0.108,1.414-0.154,2.002C403.063,267.714,403.001,268.494,403.001,268.494z"/>
					<path class="st9" d="M400.245,286.926l4.903,1.061c0,0,0.046-0.198,0.122-0.544c0.076-0.347,0.21-0.834,0.318-1.433
						c0.214-1.197,0.498-2.79,0.782-4.384c0.14-0.796,0.283-1.596,0.416-2.342c0.134-0.746,0.197-1.454,0.283-2.054
						c0.154-1.206,0.256-2.009,0.256-2.009l-4.976-0.636c0,0-0.102,0.776-0.246,1.94c-0.086,0.584-0.144,1.266-0.271,1.985
						c-0.132,0.725-0.271,1.492-0.406,2.267c-0.276,1.538-0.55,3.078-0.758,4.235c-0.103,0.58-0.232,1.051-0.302,1.387
						C400.289,286.734,400.245,286.926,400.245,286.926z"/>
					<path class="st9" d="M395.137,304.842l4.726,1.685c0,0,0.261-0.767,0.65-1.916c0.382-1.154,0.924-2.683,1.412-4.225
						c0.884-3.116,1.768-6.231,1.768-6.231l-4.852-1.272c0,0-0.856,3.015-1.71,6.024c-0.473,1.494-0.998,2.97-1.364,4.084
						C395.389,304.102,395.137,304.842,395.137,304.842z"/>
					<path class="st9" d="M387.742,321.946l4.471,2.279c0,0,0.368-0.722,0.922-1.802c0.584-1.063,1.222-2.558,1.898-4.027
						c0.659-1.482,1.344-2.946,1.821-4.063c0.444-1.132,0.74-1.884,0.74-1.884l-4.648-1.884c0,0-0.285,0.729-0.718,1.819
						c-0.462,1.076-1.124,2.496-1.762,3.927c-0.65,1.422-1.266,2.861-1.83,3.892C388.103,321.25,387.742,321.946,387.742,321.946z"
						/>
					<path class="st9" d="M378.253,337.984l4.142,2.83c0,0,0.484-0.648,1.124-1.683c0.658-1.02,1.534-2.384,2.406-3.748
						c0.901-1.344,1.674-2.768,2.286-3.817c0.604-1.055,1.012-1.754,1.012-1.754l-4.37-2.467c0,0-0.392,0.679-0.976,1.694
						c-0.592,1.016-1.336,2.392-2.212,3.692c-0.845,1.317-1.69,2.638-2.324,3.626C378.723,337.356,378.253,337.984,378.253,337.984z
						"/>
					<path class="st9" d="M366.759,352.66l3.748,3.336c0,0,0.53-0.612,1.324-1.53c0.399-0.46,0.861-0.994,1.359-1.567
						c0.492-0.576,1.04-1.175,1.524-1.824c2.004-2.544,4.002-5.092,4.002-5.092l-4.019-3.002c0,0-1.934,2.46-3.865,4.924
						c-0.473,0.626-1.002,1.202-1.48,1.758c-0.479,0.556-0.928,1.074-1.313,1.52C367.271,352.066,366.759,352.66,366.759,352.66z"/>
					<path class="st9" d="M353.497,365.746l3.292,3.786c0,0,0.611-0.53,1.529-1.326c0.938-0.772,2.086-1.912,3.267-3.024
						c1.164-1.124,2.354-2.222,3.206-3.086c0.838-0.878,1.396-1.462,1.396-1.462l-3.602-3.492c0,0-0.54,0.566-1.351,1.416
						c-0.821,0.832-1.976,1.896-3.105,2.98c-1.137,1.076-2.242,2.18-3.152,2.928C354.087,365.234,353.497,365.746,353.497,365.746z"
						/>
				</g>
				<g>
					<path class="st9" d="M338.692,377.074l2.784,4.176c0,0,0.17-0.112,0.47-0.302c0.305-0.183,0.706-0.486,1.204-0.834
						c0.99-0.706,2.311-1.646,3.628-2.584c1.341-0.912,2.593-1.94,3.548-2.685c0.959-0.752,1.597-1.252,1.597-1.252l-3.132-3.918
						c0,0-0.614,0.482-1.536,1.206c-0.929,0.722-2.141,1.718-3.435,2.603c-1.275,0.901-2.552,1.81-3.508,2.491
						c-0.481,0.337-0.872,0.631-1.166,0.811C338.858,376.966,338.692,377.074,338.692,377.074z"/>
					<path class="st9" d="M322.551,386.39l2.228,4.494c0,0,0.721-0.37,1.798-0.92c0.545-0.282,1.173-0.605,1.849-0.948
						c0.674-0.354,1.406-0.697,2.098-1.117c2.811-1.614,5.618-3.23,5.618-3.23l-2.604-4.29c0,0-2.717,1.564-5.431,3.124
						c-0.67,0.406-1.378,0.74-2.03,1.08c-0.651,0.336-1.26,0.646-1.783,0.912C323.249,386.03,322.551,386.39,322.551,386.39z"/>
					<path class="st9" d="M305.351,393.544l1.63,4.748c0,0,0.767-0.258,1.916-0.65c0.286-0.096,0.599-0.204,0.93-0.313
						c0.322-0.128,0.666-0.258,1.019-0.4c0.706-0.277,1.46-0.578,2.212-0.872c1.504-0.605,3.024-1.166,4.136-1.655
						c1.104-0.5,1.845-0.836,1.845-0.836l-2.032-4.586c0,0-0.714,0.321-1.784,0.804c-1.074,0.479-2.542,1.02-3.996,1.604
						c-0.729,0.286-1.456,0.574-2.138,0.845c-0.342,0.134-0.674,0.264-0.986,0.384c-0.315,0.107-0.616,0.212-0.896,0.304
						C306.093,393.294,305.351,393.544,305.351,393.544z"/>
					<path class="st9" d="M287.383,398.484l1.006,4.916c0,0,3.152-0.727,6.308-1.45c0.395-0.097,0.792-0.181,1.175-0.282
						c0.384-0.108,0.764-0.216,1.128-0.318c0.731-0.208,1.409-0.401,1.993-0.567c1.169-0.332,1.95-0.552,1.95-0.552l-1.426-4.813
						c0,0-0.754,0.216-1.884,0.536c-0.563,0.16-1.218,0.348-1.928,0.548c-0.353,0.1-0.721,0.204-1.086,0.308
						c-0.374,0.101-0.759,0.179-1.137,0.272C290.431,397.782,287.383,398.484,287.383,398.484z"/>
					<path class="st9" d="M268.915,400.99l0.365,5c0,0,0.807-0.061,2.021-0.154c0.604-0.044,1.312-0.1,2.068-0.156
						c0.756-0.082,1.556-0.191,2.361-0.294c1.604-0.204,3.21-0.405,4.416-0.562c0.604-0.07,1.103-0.143,1.45-0.21
						c0.35-0.064,0.548-0.101,0.548-0.101l-0.796-4.951c0,0-0.19,0.035-0.53,0.094c-0.334,0.069-0.817,0.138-1.401,0.204
						c-1.164,0.149-2.716,0.348-4.271,0.544c-0.777,0.098-1.55,0.206-2.282,0.283c-0.729,0.057-1.413,0.106-2,0.15
						C269.694,400.926,268.915,400.99,268.915,400.99z"/>
					<path class="st9" d="M250.272,401.212l-0.27,5.01c0,0,0.204,0.021,0.558,0.03c0.354,0.012,0.86,0.024,1.468,0.04
						c1.214,0.032,2.828,0.07,4.45,0.11c1.616,0.076,3.234-0.004,4.45-0.026c1.214-0.03,2.02-0.05,2.02-0.05l-0.155-5.017
						c0,0-0.784,0.019-1.958,0.047c-1.172,0.025-2.736,0.105-4.306,0.031c-1.56-0.042-3.124-0.078-4.302-0.109
						c-0.586-0.017-1.078-0.028-1.418-0.034C250.467,401.234,250.272,401.212,250.272,401.212z"/>
					<path class="st9" d="M231.769,398.998l-0.902,4.936c0,0,0.798,0.145,1.994,0.356c0.596,0.108,1.296,0.232,2.04,0.364
						c0.748,0.13,1.556,0.206,2.356,0.315c1.606,0.206,3.212,0.41,4.418,0.564c0.602,0.072,1.102,0.146,1.456,0.164
						c0.352,0.023,0.556,0.042,0.556,0.042l0.476-4.994c0,0-0.194-0.016-0.538-0.04c-0.34-0.014-0.824-0.092-1.408-0.16
						c-1.164-0.147-2.716-0.348-4.268-0.544c-0.776-0.104-1.556-0.18-2.278-0.306c-0.722-0.128-1.396-0.248-1.976-0.353
						C232.541,399.138,231.769,398.998,231.769,398.998z"/>
				</g>
				<g>
					<path class="st9" d="M213.69,394.486l-1.534,4.777c0,0,0.192,0.064,0.532,0.179c0.332,0.115,0.81,0.279,1.4,0.436
						c1.164,0.33,2.724,0.774,4.282,1.216c0.78,0.216,1.558,0.446,2.288,0.645c0.742,0.17,1.432,0.328,2.024,0.468
						c1.182,0.272,1.972,0.456,1.972,0.456l1.112-4.895c0,0-0.762-0.176-1.904-0.439c-0.576-0.132-1.242-0.286-1.958-0.45
						c-0.708-0.188-1.458-0.41-2.21-0.622c-1.506-0.428-3.012-0.857-4.144-1.176c-0.566-0.154-1.028-0.311-1.35-0.418
						C213.875,394.55,213.69,394.486,213.69,394.486z"/>
					<path class="st9" d="M196.347,387.662l-2.13,4.54c0,0,0.736,0.332,1.842,0.834c0.554,0.25,1.202,0.544,1.892,0.854
						c0.346,0.158,0.706,0.32,1.068,0.484c0.18,0.082,0.364,0.164,0.548,0.248l0.564,0.22c3.01,1.192,6.026,2.38,6.026,2.38
						l1.732-4.712c0,0-2.91-1.146-5.822-2.296L201.521,390c-0.176-0.082-0.356-0.16-0.53-0.238c-0.354-0.16-0.696-0.317-1.03-0.468
						c-0.67-0.302-1.294-0.584-1.826-0.826C197.064,387.982,196.347,387.662,196.347,387.662z"/>
					<path class="st9" d="M180.039,378.654l-2.698,4.229c0,0,0.68,0.438,1.704,1.095c1.004,0.684,2.432,1.459,3.828,2.271
						c1.41,0.8,2.8,1.628,3.87,2.202c1.082,0.558,1.802,0.924,1.802,0.924l2.324-4.448c0,0-0.696-0.354-1.744-0.89
						c-1.032-0.554-2.376-1.356-3.74-2.13c-1.35-0.79-2.726-1.534-3.698-2.196C180.699,379.08,180.039,378.654,180.039,378.654z"/>
					<path class="st9" d="M164.985,367.668l-3.216,3.85c0,0,0.602,0.547,1.568,1.282c0.952,0.752,2.224,1.752,3.5,2.752
						c1.25,1.028,2.594,1.935,3.578,2.645c0.992,0.702,1.652,1.172,1.652,1.172l2.872-4.114c0,0-0.638-0.454-1.592-1.132
						c-0.954-0.687-2.254-1.56-3.464-2.554c-1.234-0.971-2.462-1.937-3.384-2.662C165.563,368.198,164.985,367.668,164.985,367.668z
						"/>
					<path class="st9" d="M151.475,354.826l-3.68,3.412c0,0,0.56,0.586,1.398,1.466c0.416,0.438,0.906,0.954,1.432,1.502
						c0.528,0.544,1.068,1.15,1.666,1.694c2.342,2.233,4.686,4.47,4.686,4.47l3.376-3.716c0,0-2.266-2.156-4.532-4.32
						c-0.58-0.526-1.1-1.11-1.612-1.638c-0.506-0.53-0.98-1.026-1.384-1.45C152.015,355.394,151.475,354.826,151.475,354.826z"/>
					<path class="st9" d="M139.71,340.372l-4.086,2.912c0,0,0.472,0.662,1.174,1.649c0.678,1.009,1.706,2.265,2.7,3.54
						c1.006,1.269,1.988,2.557,2.768,3.488c0.792,0.918,1.322,1.532,1.322,1.532l3.818-3.252c0,0-0.512-0.596-1.28-1.482
						c-0.75-0.901-1.698-2.149-2.672-3.372c-0.96-1.235-1.956-2.445-2.612-3.422C140.167,341.008,139.71,340.372,139.71,340.372z"/>
					<path class="st9" d="M129.859,324.56l-4.426,2.368c0,0,0.354,0.729,0.974,1.774c0.606,1.05,1.412,2.456,2.22,3.86
						c0.778,1.418,1.682,2.764,2.332,3.789c0.656,1.024,1.092,1.704,1.092,1.704l4.204-2.743c0,0-0.422-0.658-1.058-1.646
						c-0.628-0.99-1.504-2.29-2.254-3.66c-0.782-1.357-1.562-2.718-2.146-3.731C130.195,325.266,129.859,324.56,129.859,324.56z"/>
				</g>
				<g>
					<path class="st9" d="M122.145,307.592l-4.69,1.78c0,0,0.294,0.75,0.74,1.884c0.222,0.564,0.484,1.223,0.764,1.93
						c0.278,0.704,0.566,1.463,0.914,2.192c1.336,2.952,2.67,5.9,2.67,5.9l4.518-2.177c0,0-1.288-2.854-2.582-5.703
						c-0.334-0.706-0.61-1.44-0.882-2.122c-0.272-0.685-0.516-1.322-0.734-1.864C122.431,308.316,122.145,307.592,122.145,307.592z"
						/>
					<path class="st9" d="M116.681,289.78l-4.88,1.157c0,0,0.18,0.793,0.454,1.977c0.122,0.592,0.326,1.271,0.532,2.004
						c0.208,0.729,0.428,1.508,0.65,2.288c0.222,0.778,0.444,1.556,0.648,2.288c0.206,0.729,0.4,1.412,0.608,1.984
						c0.388,1.149,0.646,1.918,0.646,1.918l4.762-1.58c0,0-0.252-0.742-0.626-1.854c-0.202-0.55-0.388-1.212-0.586-1.918
						c-0.2-0.706-0.414-1.458-0.628-2.21s-0.424-1.506-0.626-2.208c-0.2-0.71-0.398-1.368-0.516-1.942
						C116.856,290.542,116.681,289.78,116.681,289.78z"/>
					<path class="st9" d="M113.513,271.416l-4.99,0.526c0,0,0.406,3.212,0.814,6.426c0.236,1.602,0.556,3.191,0.76,4.388
						c0.212,1.198,0.354,1.992,0.354,1.992l4.926-0.954c0,0-0.138-0.77-0.344-1.926c-0.196-1.158-0.51-2.69-0.732-4.242
						C113.907,274.521,113.513,271.416,113.513,271.416z"/>
					<path class="st9" d="M112.772,252.79l-5.016-0.112c0,0-0.02,0.813-0.054,2.026c-0.062,1.212,0.018,2.83,0.05,4.45
						c0.04,1.615,0.08,3.235,0.112,4.447c0.088,1.213,0.148,2.019,0.148,2.019l5.006-0.318c0,0-0.056-0.78-0.142-1.948
						c-0.03-1.176-0.07-2.739-0.108-4.304c-0.032-1.567-0.108-3.13-0.046-4.304C112.749,253.572,112.772,252.79,112.772,252.79z"/>
					<path class="st9" d="M114.317,234.214l-4.96-0.744c0,0-0.41,3.214-0.82,6.424c-0.118,0.804-0.148,1.612-0.212,2.37
						c-0.06,0.756-0.112,1.464-0.16,2.068c-0.09,1.212-0.152,2.02-0.152,2.02l5.006,0.314c0,0,0.06-0.78,0.148-1.95
						c0.046-0.586,0.096-1.266,0.154-2.002c0.064-0.728,0.09-1.512,0.208-2.288C113.923,237.322,114.317,234.214,114.317,234.214z"
						/>
					<path class="st9" d="M118.301,216.01l-4.828-1.376c0,0-0.218,0.776-0.55,1.946c-0.162,0.586-0.368,1.262-0.558,1.998
						c-0.168,0.74-0.352,1.528-0.536,2.316c-0.364,1.58-0.728,3.16-1,4.344c-0.15,0.586-0.208,1.092-0.28,1.438
						c-0.06,0.348-0.098,0.548-0.098,0.548l4.926,0.952c0,0,0.036-0.192,0.094-0.528c0.07-0.336,0.126-0.822,0.27-1.394
						c0.266-1.142,0.616-2.666,0.968-4.192c0.178-0.764,0.352-1.524,0.518-2.24c0.18-0.712,0.382-1.368,0.538-1.93
						C118.084,216.762,118.301,216.01,118.301,216.01z"/>
					<path class="st9" d="M124.535,198.454l-4.606-1.988c0,0-0.086,0.188-0.232,0.508c-0.152,0.32-0.34,0.792-0.558,1.358
						c-0.448,1.13-1.04,2.636-1.638,4.142c-0.286,0.758-0.608,1.5-0.85,2.22c-0.24,0.72-0.466,1.388-0.664,1.968
						c-0.388,1.15-0.648,1.916-0.648,1.916l4.762,1.58c0,0,0.25-0.744,0.626-1.852c0.188-0.558,0.406-1.204,0.646-1.9
						c0.222-0.702,0.54-1.416,0.824-2.148c0.568-1.454,1.144-2.91,1.576-4.002c0.21-0.546,0.39-1.002,0.54-1.312
						C124.453,198.634,124.535,198.454,124.535,198.454z"/>
				</g>
				<g>
					<path class="st9" d="M133.007,181.854l-4.314-2.56c0,0-0.402,0.7-1.006,1.752c-0.304,0.528-0.658,1.142-1.034,1.8
						c-0.376,0.66-0.802,1.35-1.16,2.08c-1.472,2.88-2.95,5.764-2.95,5.764l4.518,2.18c0,0,1.43-2.786,2.856-5.572
						c0.34-0.704,0.754-1.374,1.116-2.01c0.364-0.636,0.71-1.23,1-1.74C132.617,182.53,133.007,181.854,133.007,181.854z"/>
					<path class="st9" d="M143.541,166.48l-3.954-3.092c0,0-0.5,0.638-1.25,1.592c-0.778,0.936-1.68,2.278-2.628,3.594
						c-0.932,1.324-1.894,2.628-2.564,3.638c-0.658,1.026-1.094,1.706-1.094,1.706l4.2,2.74c0,0,0.424-0.66,1.06-1.65
						c0.644-0.978,1.578-2.234,2.478-3.516c0.912-1.27,1.79-2.57,2.542-3.474C143.055,167.096,143.541,166.48,143.541,166.48z"/>
					<path class="st9" d="M155.915,152.548l-3.526-3.57c0,0-0.604,0.544-1.428,1.436c-0.838,0.88-1.956,2.05-3.072,3.222
						c-1.14,1.15-2.174,2.398-2.974,3.313c-0.794,0.916-1.326,1.53-1.326,1.53l3.818,3.254c0,0,0.514-0.59,1.284-1.478
						c0.774-0.884,1.771-2.096,2.874-3.204c1.078-1.132,2.16-2.268,2.97-3.116C155.333,153.07,155.915,152.548,155.915,152.548z"/>
					<path class="st9" d="M169.989,140.324l-3.048-3.99c0,0-0.636,0.5-1.586,1.25c-0.48,0.376-1.038,0.814-1.634,1.282
						c-0.594,0.474-1.248,0.954-1.844,1.496c-2.45,2.122-4.9,4.24-4.9,4.24l3.376,3.712c0,0,2.364-2.048,4.734-4.098
						c0.578-0.524,1.214-0.986,1.784-1.446c0.576-0.454,1.116-0.876,1.576-1.24C169.371,140.806,169.989,140.324,169.989,140.324z"
						/>
					<path class="st9" d="M185.499,129.998l-2.508-4.344c0,0-0.702,0.402-1.756,1.008c-1.068,0.582-2.414,1.484-3.78,2.35
						c-1.36,0.88-2.736,1.734-3.74,2.422c-0.99,0.7-1.648,1.172-1.648,1.172l2.872,4.112c0,0,0.638-0.456,1.596-1.136
						c0.97-0.662,2.298-1.488,3.614-2.336c1.324-0.84,2.622-1.714,3.656-2.272C184.823,130.388,185.499,129.998,185.499,129.998z"/>
					<path class="st9" d="M202.19,121.708l-1.932-4.632c0,0-0.186,0.076-0.516,0.206c-0.328,0.128-0.784,0.35-1.342,0.596
						c-1.104,0.498-2.582,1.166-4.058,1.832c-1.49,0.638-2.908,1.416-3.996,1.96c-1.082,0.558-1.802,0.926-1.802,0.926l2.324,4.446
						c0,0,0.698-0.358,1.74-0.892c1.05-0.524,2.424-1.28,3.864-1.896c1.428-0.644,2.852-1.288,3.924-1.774
						c0.534-0.236,0.976-0.45,1.296-0.578C202.009,121.78,202.19,121.708,202.19,121.708z"/>
					<path class="st9" d="M219.821,115.68l-1.322-4.84c0,0-0.778,0.222-1.944,0.554c-0.586,0.166-1.266,0.358-1.996,0.564
						c-0.366,0.108-0.742,0.212-1.126,0.322c-0.38,0.126-0.76,0.254-1.144,0.382c-1.534,0.524-3.068,1.04-4.22,1.43
						c-0.576,0.196-1.052,0.358-1.392,0.47c-0.336,0.108-0.52,0.19-0.52,0.19l1.732,4.71c0,0,0.18-0.084,0.506-0.186
						c0.326-0.11,0.786-0.266,1.346-0.456c1.11-0.374,2.59-0.876,4.074-1.378c0.372-0.122,0.742-0.25,1.108-0.368
						c0.366-0.108,0.734-0.21,1.084-0.312c0.71-0.2,1.366-0.386,1.93-0.546C219.067,115.894,219.821,115.68,219.821,115.68z"/>
				</g>
				<g>
					<path class="st9" d="M238.081,111.954l-0.688-4.968c0,0-0.804,0.098-2.008,0.254c-1.196,0.198-2.792,0.494-4.386,0.772
						c-1.59,0.298-3.192,0.542-4.372,0.842c-1.182,0.276-1.972,0.456-1.972,0.456l1.114,4.894c0,0,0.76-0.178,1.904-0.442
						c1.138-0.296,2.686-0.524,4.226-0.814c1.542-0.271,3.082-0.558,4.24-0.746C237.305,112.05,238.081,111.954,238.081,111.954z"/>
					<path class="st9" d="M256.667,110.58l-0.05-5.016c0,0-3.236,0.09-6.474,0.178c-3.228,0.244-6.456,0.49-6.456,0.49l0.474,4.994
						c0,0,3.124-0.24,6.248-0.476C253.537,110.666,256.667,110.58,256.667,110.58z"/>
					<path class="st9" d="M275.274,111.582l0.588-4.98c0,0-0.804-0.1-2.008-0.256c-1.208-0.124-2.826-0.224-4.439-0.356
						c-0.805-0.06-1.614-0.122-2.372-0.178c-0.378-0.03-0.744-0.058-1.088-0.084c-0.349-0.01-0.677-0.018-0.982-0.028
						c-1.214-0.032-2.024-0.054-2.024-0.054l-0.155,5.016c0,0,0.781,0.02,1.958,0.048c0.292,0.012,0.611,0.012,0.947,0.028
						c0.332,0.026,0.687,0.05,1.055,0.082c0.731,0.054,1.512,0.116,2.292,0.174c1.56,0.124,3.122,0.22,4.292,0.342
						C274.501,111.484,275.274,111.582,275.274,111.582z"/>
					<path class="st9" d="M293.612,114.922l1.219-4.868c0,0-3.158-0.728-6.311-1.454c-3.188-0.57-6.372-1.142-6.372-1.142
						l-0.8,4.954c0,0,3.084,0.55,6.164,1.1C290.561,114.218,293.612,114.922,293.612,114.922z"/>
					<path class="st9" d="M311.345,120.634l1.84-4.67c0,0-0.756-0.298-1.884-0.74c-0.57-0.214-1.216-0.508-1.94-0.738
						c-0.72-0.244-1.487-0.504-2.254-0.762c-1.536-0.518-3.067-1.038-4.22-1.426c-1.166-0.334-1.944-0.556-1.944-0.556l-1.426,4.81
						c0,0,0.752,0.214,1.882,0.536c1.112,0.376,2.594,0.876,4.076,1.378c0.742,0.252,1.482,0.502,2.176,0.74
						c0.7,0.218,1.326,0.504,1.874,0.71C310.619,120.346,311.345,120.634,311.345,120.634z"/>
					<path class="st9" d="M328.221,128.536l2.424-4.392c0,0-0.176-0.102-0.481-0.276c-0.305-0.186-0.761-0.404-1.301-0.686
						c-1.079-0.554-2.518-1.292-3.962-2.032c-1.424-0.766-2.914-1.406-4.021-1.908c-1.108-0.5-1.842-0.836-1.842-0.836l-2.032,4.588
						c0,0,0.712,0.32,1.778,0.808c1.069,0.484,2.51,1.102,3.89,1.842c1.394,0.716,2.784,1.43,3.828,1.964
						c0.521,0.27,0.964,0.482,1.258,0.66C328.055,128.438,328.221,128.536,328.221,128.536z"/>
					<path class="st9" d="M343.927,138.566l2.962-4.048c0,0-0.658-0.468-1.65-1.172c-0.491-0.352-1.069-0.76-1.689-1.204
						c-0.62-0.436-1.264-0.92-1.956-1.346c-2.729-1.746-5.454-3.492-5.454-3.492l-2.604,4.288c0,0,2.636,1.69,5.271,3.376
						c0.666,0.41,1.292,0.882,1.89,1.302c0.601,0.424,1.158,0.822,1.637,1.164C343.289,138.114,343.927,138.566,343.927,138.566z"/>
				</g>
				<g>
					<path class="st9" d="M358.225,150.522l3.458-3.638c0,0-0.588-0.558-1.466-1.396c-0.86-0.86-2.108-1.894-3.324-2.958
						c-1.228-1.054-2.436-2.136-3.38-2.9c-0.954-0.75-1.59-1.252-1.59-1.252l-3.132,3.922c0,0,0.613,0.48,1.535,1.208
						c0.914,0.738,2.082,1.784,3.271,2.802c1.18,1.034,2.386,2.028,3.214,2.864C357.661,149.982,358.225,150.522,358.225,150.522z"
						/>
					<path class="st9" d="M370.915,164.176l3.89-3.17c0,0-0.126-0.158-0.346-0.438c-0.212-0.284-0.551-0.658-0.946-1.12
						c-0.796-0.918-1.856-2.142-2.916-3.368c-1.036-1.246-2.18-2.39-3.012-3.276c-0.84-0.878-1.398-1.462-1.398-1.462l-3.604,3.488
						c0,0,0.542,0.57,1.35,1.418c0.808,0.852,1.916,1.96,2.914,3.166c1.026,1.184,2.052,2.368,2.818,3.254
						c0.384,0.446,0.716,0.808,0.918,1.084C370.795,164.022,370.915,164.176,370.915,164.176z"/>
					<path class="st9" d="M381.734,179.348l4.261-2.646c0,0-0.433-0.684-1.091-1.704c-0.328-0.512-0.714-1.108-1.119-1.75
						c-0.418-0.632-0.828-1.332-1.314-1.98c-1.878-2.64-3.754-5.278-3.754-5.278l-4.019,3.002c0,0,1.816,2.55,3.631,5.104
						c0.47,0.626,0.867,1.302,1.266,1.914c0.396,0.62,0.768,1.198,1.084,1.692C381.313,178.686,381.734,179.348,381.734,179.348z"/>
					<path class="st9" d="M390.521,195.782l4.564-2.078c0,0-0.33-0.738-0.832-1.844c-0.47-1.122-1.25-2.546-1.975-3.994
						c-0.748-1.434-1.464-2.888-2.05-3.948c-0.605-1.054-1.006-1.758-1.006-1.758l-4.37,2.468c0,0,0.39,0.678,0.974,1.696
						c0.568,1.026,1.259,2.43,1.979,3.818c0.706,1.4,1.456,2.772,1.912,3.856C390.198,195.07,390.521,195.782,390.521,195.782z"/>
					<path class="st9" d="M397.165,213.188l4.796-1.47c0,0-0.055-0.196-0.156-0.538c-0.116-0.334-0.276-0.814-0.47-1.39
						c-0.391-1.15-0.908-2.684-1.427-4.22c-0.13-0.382-0.262-0.764-0.39-1.144c-0.128-0.376-0.284-0.734-0.42-1.092
						c-0.278-0.704-0.536-1.364-0.758-1.93c-0.45-1.128-0.746-1.882-0.746-1.882l-4.648,1.882c0,0,0.286,0.728,0.717,1.822
						c0.216,0.546,0.468,1.184,0.735,1.868c0.135,0.34,0.284,0.688,0.408,1.054c0.126,0.362,0.246,0.734,0.374,1.106
						c0.502,1.484,1,2.964,1.38,4.076c0.188,0.558,0.346,1.018,0.454,1.344C397.108,213.002,397.165,213.188,397.165,213.188z"/>
					<path class="st9" d="M401.451,231.328l4.945-0.842c0,0-0.144-0.8-0.355-1.996c-0.225-1.192-0.465-2.796-0.86-4.366
						c-0.364-1.578-0.732-3.158-1.004-4.342c-0.136-0.59-0.252-1.084-0.332-1.428c-0.094-0.34-0.152-0.536-0.152-0.536l-4.852,1.268
						c0,0,0.052,0.19,0.147,0.518c0.076,0.334,0.185,0.808,0.316,1.38c0.264,1.15,0.618,2.674,0.968,4.196
						c0.389,1.518,0.62,3.066,0.832,4.222C401.311,230.558,401.451,231.328,401.451,231.328z"/>
					<path class="st9" d="M403.417,249.854l5.014-0.206c0,0-0.002-0.204-0.014-0.554c-0.011-0.356-0.011-0.864-0.07-1.466
						c-0.092-1.214-0.214-2.826-0.334-4.44c-0.064-0.81-0.128-1.616-0.184-2.374c-0.074-0.754-0.175-1.452-0.248-2.058
						c-0.154-1.202-0.257-2.006-0.257-2.006l-4.974,0.636c0,0,0.096,0.776,0.244,1.94c0.072,0.582,0.172,1.26,0.244,1.99
						c0.054,0.732,0.116,1.514,0.172,2.294c0.12,1.56,0.238,3.122,0.33,4.292c0.056,0.584,0.056,1.072,0.063,1.416
						C403.415,249.656,403.417,249.854,403.417,249.854z"/>
				</g>
			</g>
			<g id="Setting_1_">
				<path class="st17" d="M229.581,268.726c0.094-0.071,0.194-0.134,0.286-0.21l87.156-71.7c3.378-2.778,3.864-7.77,1.084-11.146
					l-7.546-9.176c-2.777-3.378-7.768-3.864-11.146-1.086l-87.16,71.7c-0.09,0.076-0.174,0.162-0.26,0.238
					c-14.928-9.122-34.59-8.316-48.86,3.424c-13.688,11.258-18.462,29.328-13.466,45.264l33.296-27.395
					c3.376-2.777,8.368-2.29,11.148,1.086l10.064,12.23c2.778,3.378,2.29,8.37-1.086,11.147l-33.298,27.395
					c14.672,7.972,33.324,6.771,47.01-4.49C231.075,304.271,235.655,285.134,229.581,268.726z"/>
				<path class="st44" d="M214.183,282.698l-18.186-22.112c-2.78-3.378-7.772-3.86-11.148-1.084l-36.644,30.142
					c0.32,2.154,0.804,4.29,1.464,6.391l33.296-27.395c3.376-2.777,8.368-2.29,11.148,1.086l10.064,12.23
					c2.778,3.378,2.29,8.37-1.086,11.147l-33.298,27.395c2.304,1.252,4.708,2.276,7.172,3.074l36.136-29.727
					C216.477,291.066,216.963,286.078,214.183,282.698z"/>
				<path class="st37" d="M319.167,187.364c-0.28-0.596-0.624-1.166-1.061-1.694l-7.546-9.176c-0.434-0.532-0.93-0.976-1.458-1.364
					l-89.916,73.968c-3.852,3.17-4.726,8.48-1.948,11.86c2.778,3.378,8.158,3.544,12.01,0.376L319.167,187.364z"/>
				<path class="st30" d="M309.013,194.222c-2.782,2.284-6.886,1.884-9.176-0.894c-2.288-2.78-1.884-6.89,0.894-9.174
					c2.778-2.288,6.889-1.888,9.172,0.89C312.19,187.826,311.793,191.932,309.013,194.222z"/>
			</g>
			<g>
				<polygon class="st7" points="168.253,163.33 166.48,165.462 164.708,167.59 174.741,182.764 183.529,184.606 183.529,184.606 
					268.425,252.87 273.849,246.358 188.951,178.09 185.373,169.99 				"/>
				<path class="st36" d="M357.089,293.936c0,0-45.116-36.731-50.67-40.72c-5.552-3.99-8.576-1.24-8.576-1.24
					c-0.39-3.702-2.75-7.204-2.75-7.204s-10.65-8.354-13.854-10.466c-3.206-2.12-6.653-0.298-6.653-0.298l-9.648,10.582l0.145,0.122
					l-8.146,10.802c0,0-1.116,3.684,1.638,6.346c2.75,2.657,13.221,11.229,13.221,11.229s3.968,1.563,7.733,1.192
					c0,0-2.132,3.468,2.964,8.008c5.097,4.544,50.79,40.576,50.79,40.576s6.358,3.932,12.944-1.271
					c6.592-5.197,8.168-7.63,8.168-7.63l-0.178-0.144c0.998-1.444,2.416-3.714,4.218-7.168
					C362.285,299.262,357.089,293.936,357.089,293.936z"/>
				<path class="st21" d="M359.064,305.254c-4.26-1.318-9.542,0.38-13.038,4.58c-3.426,4.116-4.111,9.404-2.107,13.232
					c0.762-0.381,1.532-0.854,2.306-1.471c6.592-5.197,8.168-7.63,8.168-7.63l-0.178-0.144c0.998-1.444,2.416-3.714,4.218-7.168
					C358.679,306.178,358.887,305.712,359.064,305.254z"/>
				<path class="st33" d="M297.843,251.976c-0.39-3.702-2.75-7.204-2.75-7.204s-10.65-8.354-13.854-10.466
					c-3.206-2.12-6.653-0.298-6.653-0.298l-9.648,10.582l0.145,0.122l-0.017,0.018l88.024,70.784c0.97-1.04,1.304-1.548,1.304-1.548
					l-0.178-0.144c0.998-1.444,2.416-3.714,4.218-7.168c3.853-7.393-1.344-12.719-1.344-12.719s-45.116-36.731-50.67-40.72
					C300.867,249.226,297.843,251.976,297.843,251.976z"/>
				<path class="st0" d="M340.064,312.776c1.164,0.936,1.334,2.617,0.382,3.758l0,0c-0.947,1.146-2.659,1.312-3.823,0.378
					l-48.566-39.054c-1.162-0.933-1.334-2.616-0.384-3.757l0,0c0.95-1.142,2.662-1.31,3.826-0.38L340.064,312.776z"/>
				<path class="st0" d="M350.156,300.66c1.16,0.932,1.332,2.618,0.385,3.758l0,0c-0.95,1.14-2.664,1.308-3.828,0.376
					l-48.564-39.056c-1.166-0.931-1.336-2.612-0.384-3.756l0,0c0.948-1.145,2.66-1.311,3.822-0.376L350.156,300.66z"/>
				<polygon class="st0" points="273.849,246.358 188.951,178.09 185.373,169.99 168.253,163.33 166.48,165.462 271.137,249.614 
									"/>
			</g>
			<g id="Active_1_">
				<g id="Active2_1_">
					<path class="st31" d="M101.547,318.874c1.476,0.536,2.83,1.324,4.01,2.312l5.572-2.292l3.742,6.48l-4.662,3.868
						c0.134,0.771,0.206,1.56,0.206,2.372c0,0.714-0.056,1.416-0.166,2.1l4.856,3.732l-3.744,6.483l-5.592-2.069
						c-1.166,1.014-2.506,1.83-3.962,2.392l-0.788,5.916h-7.488l-0.99-5.818c-1.478-0.535-2.832-1.319-4.016-2.312l-5.568,2.296
						l-3.742-6.484l4.664-3.865c-0.136-0.771-0.21-1.561-0.21-2.37c0-0.721,0.056-1.42,0.164-2.104l-4.852-3.731l3.742-6.482
						l5.592,2.072c1.164-1.019,2.504-1.83,3.962-2.396l0.788-5.914h7.486L101.547,318.874z"/>
					<path class="st35" d="M97.041,341.16c5.262,0,9.554-4.288,9.554-9.546c0-5.263-4.292-9.55-9.554-9.55
						c-5.256,0-9.552,4.287-9.552,9.55C87.489,336.872,91.785,341.16,97.041,341.16L97.041,341.16z"/>
					<path class="st23" d="M97.041,338.064c3.556,0,6.456-2.9,6.456-6.45c0-3.557-2.9-6.454-6.456-6.454
						c-3.552,0-6.452,2.897-6.452,6.454C90.589,335.164,93.489,338.064,97.041,338.064L97.041,338.064z"/>
				</g>
				<g id="Active1_1_">
					<path class="st19" d="M121.883,344.528c1.136,0.414,2.178,1.018,3.09,1.781l4.288-1.768l2.882,4.99l-3.588,2.979
						c0.106,0.59,0.156,1.2,0.156,1.826c0,0.55-0.04,1.09-0.124,1.62l3.736,2.872l-2.88,4.992l-4.31-1.592
						c-0.894,0.779-1.926,1.407-3.052,1.844l-0.606,4.556h-5.764l-0.762-4.481c-1.138-0.408-2.184-1.021-3.094-1.782l-4.29,1.768
						l-2.88-4.99l3.59-2.979c-0.106-0.594-0.16-1.204-0.16-1.826c0-0.552,0.044-1.09,0.126-1.62l-3.738-2.876l2.886-4.99
						l4.304,1.595c0.896-0.78,1.928-1.408,3.052-1.845l0.61-4.556h5.764L121.883,344.528z"/>
					<path class="st35" d="M118.413,361.828c4.128,0,7.496-3.364,7.496-7.49c0-4.128-3.368-7.492-7.496-7.492
						s-7.494,3.364-7.494,7.492C110.918,358.464,114.285,361.828,118.413,361.828L118.413,361.828z"/>
					<path class="st23" d="M118.413,359.304c2.74,0,4.972-2.229,4.972-4.966c0-2.74-2.232-4.97-4.972-4.97
						c-2.734,0-4.966,2.229-4.966,4.97C113.447,357.074,115.679,359.304,118.413,359.304L118.413,359.304z"/>
				</g>
				<g id="Active_2_">
					<path class="st14" d="M132.23,301.898c1.788,0.063,3.536,0.447,5.168,1.107l5.246-4.439l6.334,5.728l-3.71,5.83
						c0.414,0.79,0.77,1.628,1.052,2.508c0.25,0.772,0.436,1.556,0.562,2.338l6.576,2.356l-1.796,8.354l-6.802-0.294
						c-0.906,1.506-2.076,2.862-3.466,3.988l1.214,6.702l-8.13,2.62l-3.114-5.975c-1.786-0.06-3.538-0.443-5.17-1.107l-5.246,4.445
						l-6.336-5.733l3.714-5.83c-0.416-0.788-0.772-1.624-1.054-2.506c-0.252-0.774-0.438-1.557-0.564-2.336l-6.576-2.36l1.798-8.35
						l6.802,0.29c0.906-1.506,2.074-2.862,3.466-3.982l-1.214-6.706l8.132-2.622L132.23,301.898z"/>
					<path class="st35" d="M131.795,329.388c6.656,0,12.082-5.426,12.082-12.078c0-6.653-5.426-12.077-12.082-12.077
						c-6.652,0-12.082,5.424-12.082,12.077C119.713,323.962,125.143,329.388,131.795,329.388L131.795,329.388z"/>
					<path class="st23" d="M134.055,324.318c3.866-1.244,5.994-5.408,4.75-9.267c-1.24-3.861-5.406-5.994-9.266-4.75
						c-3.858,1.248-5.998,5.408-4.752,9.271C126.031,323.428,130.197,325.566,134.055,324.318L134.055,324.318z"/>
				</g>
			</g>
			<g id="Laptop_11_">
				<g>
					<rect x="96.339" y="142.026" class="st47" width="51.266" height="2.378"/>
					<path class="st42" d="M160.077,113.054H82.965c-3.536,0-4.628,2.22-3.944,4.844c0-0.032,0.004-0.064,0.008-0.096
						c-0.008,0.178,0.002,0.356,0.052,0.54l5.58,21.07c0.846,3.194,1.6,3.294,5.764,3.288l64.474-0.006
						c3.346,0,4.98,0.006,5.642-3.204l4.348-21.148c0.016-0.08,0.024-0.16,0.03-0.24l0.002,0.006l0.21-1.79
						C165.425,113.744,162.042,113.054,160.077,113.054z M79.063,117.522c-0.012,0.05-0.024,0.098-0.028,0.15
						C79.039,117.62,79.051,117.572,79.063,117.522z M79.227,117.034c-0.012,0.02-0.026,0.044-0.034,0.072
						C79.201,117.078,79.215,117.054,79.227,117.034z M79.133,117.258c-0.014,0.044-0.032,0.08-0.038,0.124
						C79.101,117.338,79.119,117.302,79.133,117.258z M82.281,115.198c0.116-0.012,0.23-0.016,0.348-0.016
						C82.511,115.182,82.396,115.186,82.281,115.198z M80.135,115.996l0.026-0.022L80.135,115.996z M80.389,115.826
						c0.018-0.012,0.032-0.02,0.048-0.032C80.421,115.806,80.407,115.814,80.389,115.826z M80.667,115.67
						c0.022-0.012,0.046-0.024,0.072-0.04C80.713,115.646,80.688,115.658,80.667,115.67z M80.963,115.53
						c0.034-0.016,0.064-0.026,0.096-0.04C81.027,115.504,80.997,115.514,80.963,115.53z M81.272,115.412
						c0.042-0.014,0.086-0.028,0.124-0.038C81.359,115.384,81.314,115.398,81.272,115.412z M81.601,115.314
						c0.052-0.012,0.104-0.026,0.156-0.032C81.705,115.288,81.653,115.302,81.601,115.314z M81.937,115.242
						c0.064-0.01,0.134-0.018,0.204-0.028C82.071,115.224,82,115.232,81.937,115.242z"/>
					<path class="st35" d="M82.965,113.054h77.112c1.966,0,5.348,0.69,5.054,3.264l-0.21,1.79c-0.288-1.334-1.948-2.926-3.58-2.926
						H82.629c-1.772,0-3.626,1.228-3.608,2.716C78.337,115.274,79.429,113.054,82.965,113.054L82.965,113.054z"/>
					<polygon class="st1" points="82.945,116.67 161.447,116.582 157.213,141.12 87.869,141.138 					"/>
					<path class="st40" d="M86.801,143.418h70.794c1.172,0,2.134,0.964,2.134,2.134v39.038c0,1.172-0.962,2.132-2.134,2.132H86.801
						c-1.172,0-2.132-0.96-2.132-2.132v-39.038C84.668,144.382,85.629,143.418,86.801,143.418L86.801,143.418z"/>
					<path class="st33" d="M159.729,145.552c0-1.17-0.962-2.134-2.134-2.134h-5.958l-45.128,43.304h51.086
						c1.172,0,2.134-0.96,2.134-2.132V145.552z"/>
					<rect x="112.168" y="173.518" class="st47" width="20.056" height="10.496"/>
					<rect x="88.389" y="147.078" class="st13" width="67.618" height="24.578"/>
					<path class="st12" d="M130.359,178.864c0,2.498-0.432,4.526-0.968,4.526h-14.878c-0.536,0-0.966-2.028-0.966-4.526l0,0
						c0-2.502,0.43-4.524,0.966-4.524h14.878C129.927,174.34,130.359,176.362,130.359,178.864L130.359,178.864z"/>
				</g>
				<g id="Keyboard_11_">
					<path class="st41" d="M89.854,148.532h3.14c0.184,0,0.332,0.196,0.332,0.436v3.38c0,0.238-0.148,0.44-0.332,0.44h-3.14
						c-0.186,0-0.338-0.202-0.338-0.44v-3.38C89.517,148.728,89.668,148.532,89.854,148.532L89.854,148.532z"/>
					<path class="st41" d="M94.947,148.532h3.138c0.184,0,0.34,0.196,0.34,0.436v3.38c0,0.238-0.156,0.44-0.34,0.44h-3.138
						c-0.182,0-0.338-0.202-0.338-0.44v-3.38C94.609,148.728,94.765,148.532,94.947,148.532L94.947,148.532z"/>
					<path class="st41" d="M100.047,148.532h3.134c0.182,0,0.336,0.196,0.336,0.436v3.38c0,0.238-0.154,0.44-0.336,0.44h-3.134
						c-0.188,0-0.338-0.202-0.338-0.44v-3.38C99.708,148.728,99.859,148.532,100.047,148.532L100.047,148.532z"/>
					<path class="st41" d="M105.139,148.532h3.134c0.192,0,0.336,0.196,0.336,0.436v3.38c0,0.238-0.144,0.44-0.336,0.44h-3.134
						c-0.184,0-0.338-0.202-0.338-0.44v-3.38C104.801,148.728,104.955,148.532,105.139,148.532L105.139,148.532z"/>
					<path class="st41" d="M110.23,148.532h3.14c0.186,0,0.34,0.196,0.34,0.436v3.38c0,0.238-0.154,0.44-0.34,0.44h-3.14
						c-0.184,0-0.34-0.202-0.34-0.44v-3.38C109.891,148.728,110.047,148.532,110.23,148.532L110.23,148.532z"/>
					<path class="st41" d="M115.329,148.532h3.134c0.186,0,0.34,0.196,0.34,0.436v3.38c0,0.238-0.154,0.44-0.34,0.44h-3.134
						c-0.184,0-0.336-0.202-0.336-0.44v-3.38C114.993,148.728,115.145,148.532,115.329,148.532L115.329,148.532z"/>
					<path class="st41" d="M120.421,148.532h3.132c0.196,0,0.342,0.196,0.342,0.436v3.38c0,0.238-0.146,0.44-0.342,0.44h-3.132
						c-0.184,0-0.338-0.202-0.338-0.44v-3.38C120.083,148.728,120.237,148.532,120.421,148.532L120.421,148.532z"/>
					<path class="st41" d="M125.513,148.532h3.142c0.184,0,0.34,0.196,0.34,0.436v3.38c0,0.238-0.156,0.44-0.34,0.44h-3.142
						c-0.182,0-0.338-0.202-0.338-0.44v-3.38C125.175,148.728,125.331,148.532,125.513,148.532L125.513,148.532z"/>
					<path class="st41" d="M130.615,148.532h3.132c0.186,0,0.338,0.196,0.338,0.436v3.38c0,0.238-0.152,0.44-0.338,0.44h-3.132
						c-0.192,0-0.342-0.202-0.342-0.44v-3.38C130.272,148.728,130.423,148.532,130.615,148.532L130.615,148.532z"/>
					<path class="st41" d="M135.707,148.532h3.132c0.19,0,0.34,0.196,0.34,0.436v3.38c0,0.238-0.15,0.44-0.34,0.44h-3.132
						c-0.188,0-0.338-0.202-0.338-0.44v-3.38C135.369,148.728,135.519,148.532,135.707,148.532L135.707,148.532z"/>
					<path class="st41" d="M140.797,148.532h3.144c0.182,0,0.332,0.196,0.332,0.436v3.38c0,0.238-0.15,0.44-0.332,0.44h-3.144
						c-0.188,0-0.336-0.202-0.336-0.44v-3.38C140.46,148.728,140.609,148.532,140.797,148.532L140.797,148.532z"/>
					<path class="st41" d="M97.507,154.434h3.13c0.186,0,0.338,0.198,0.338,0.44v3.376c0,0.24-0.152,0.438-0.338,0.438h-3.13
						c-0.19,0-0.342-0.198-0.342-0.438v-3.376C97.165,154.632,97.317,154.434,97.507,154.434L97.507,154.434z"/>
					<path class="st41" d="M102.599,154.434h3.134c0.186,0,0.344,0.198,0.344,0.44v3.376c0,0.24-0.158,0.438-0.344,0.438h-3.134
						c-0.188,0-0.342-0.198-0.342-0.438v-3.376C102.257,154.632,102.411,154.434,102.599,154.434L102.599,154.434z"/>
					<path class="st41" d="M107.688,154.434h3.14c0.182,0,0.338,0.198,0.338,0.44v3.376c0,0.24-0.156,0.438-0.338,0.438h-3.14
						c-0.186,0-0.332-0.198-0.332-0.438v-3.376C107.356,154.632,107.503,154.434,107.688,154.434L107.688,154.434z"/>
					<path class="st41" d="M112.787,154.434h3.134c0.184,0,0.336,0.198,0.336,0.44v3.376c0,0.24-0.152,0.438-0.336,0.438h-3.134
						c-0.184,0-0.34-0.198-0.34-0.438v-3.376C112.447,154.632,112.603,154.434,112.787,154.434L112.787,154.434z"/>
					<path class="st41" d="M117.881,154.434h3.136c0.188,0,0.336,0.198,0.336,0.44v3.376c0,0.24-0.148,0.438-0.336,0.438h-3.136
						c-0.186,0-0.34-0.198-0.34-0.438v-3.376C117.541,154.632,117.695,154.434,117.881,154.434L117.881,154.434z"/>
					<path class="st41" d="M122.971,154.434h3.142c0.184,0,0.338,0.198,0.338,0.44v3.376c0,0.24-0.154,0.438-0.338,0.438h-3.142
						c-0.184,0-0.338-0.198-0.338-0.438v-3.376C122.633,154.632,122.787,154.434,122.971,154.434L122.971,154.434z"/>
					<path class="st41" d="M128.069,154.434h3.134c0.184,0,0.34,0.198,0.34,0.44v3.376c0,0.24-0.156,0.438-0.34,0.438h-3.134
						c-0.184,0-0.338-0.198-0.338-0.438v-3.376C127.73,154.632,127.885,154.434,128.069,154.434L128.069,154.434z"/>
					<path class="st41" d="M133.161,154.434h3.142c0.186,0,0.334,0.198,0.334,0.44v3.376c0,0.24-0.148,0.438-0.334,0.438h-3.142
						c-0.182,0-0.338-0.198-0.338-0.438v-3.376C132.823,154.632,132.979,154.434,133.161,154.434L133.161,154.434z"/>
					<path class="st41" d="M138.255,154.434h3.14c0.186,0,0.338,0.198,0.338,0.44v3.376c0,0.24-0.152,0.438-0.338,0.438h-3.14
						c-0.184,0-0.338-0.198-0.338-0.438v-3.376C137.917,154.632,138.071,154.434,138.255,154.434L138.255,154.434z"/>
					<path class="st41" d="M143.353,154.434h3.136c0.182,0,0.338,0.198,0.338,0.44v3.376c0,0.24-0.156,0.438-0.338,0.438h-3.136
						c-0.184,0-0.338-0.198-0.338-0.438v-3.376C143.015,154.632,143.168,154.434,143.353,154.434L143.353,154.434z"/>
					<path class="st41" d="M145.898,148.532h3.13c0.188,0,0.34,0.196,0.34,0.436v3.38c0,0.238-0.152,0.44-0.34,0.44h-3.13
						c-0.192,0-0.342-0.202-0.342-0.44v-3.38C145.557,148.728,145.707,148.532,145.898,148.532L145.898,148.532z"/>
					<path class="st41" d="M150.989,148.532h3.132c0.188,0,0.342,0.196,0.342,0.436v3.38c0,0.238-0.154,0.44-0.342,0.44h-3.132
						c-0.186,0-0.336-0.202-0.336-0.44v-3.38C150.653,148.728,150.803,148.532,150.989,148.532L150.989,148.532z"/>
					<path class="st41" d="M148.533,154.434h5.588c0.188,0,0.342,0.198,0.342,0.44v3.376c0,0.24-0.154,0.438-0.342,0.438h-5.588
						c-0.19,0-0.344-0.198-0.344-0.438v-3.376C148.188,154.632,148.343,154.434,148.533,154.434L148.533,154.434z"/>
					<path class="st41" d="M89.909,154.434h5.8c0.188,0,0.34,0.198,0.34,0.44v3.376c0,0.24-0.152,0.438-0.34,0.438h-5.8
						c-0.194,0-0.342-0.198-0.342-0.438v-3.376C89.567,154.632,89.715,154.434,89.909,154.434L89.909,154.434z"/>
					<path class="st41" d="M89.909,160.336h6.93c0.182,0,0.336,0.198,0.336,0.438v3.382c0,0.238-0.154,0.434-0.336,0.434h-6.93
						c-0.194,0-0.342-0.196-0.342-0.434v-3.382C89.567,160.534,89.715,160.336,89.909,160.336L89.909,160.336z"/>
					<path class="st41" d="M89.909,166.242h3.124c0.186,0,0.338,0.198,0.338,0.434v3.384c0,0.238-0.152,0.436-0.338,0.436h-3.124
						c-0.194,0-0.342-0.198-0.342-0.436v-3.384C89.567,166.44,89.715,166.242,89.909,166.242L89.909,166.242z"/>
					<path class="st41" d="M94.993,166.242h3.124c0.186,0,0.342,0.198,0.342,0.434v3.384c0,0.238-0.156,0.436-0.342,0.436h-3.124
						c-0.188,0-0.342-0.198-0.342-0.436v-3.384C94.651,166.44,94.805,166.242,94.993,166.242L94.993,166.242z"/>
					<path class="st41" d="M100.077,166.242h3.126c0.192,0,0.342,0.198,0.342,0.434v3.384c0,0.238-0.15,0.436-0.342,0.436h-3.126
						c-0.184,0-0.338-0.198-0.338-0.436v-3.384C99.739,166.44,99.893,166.242,100.077,166.242L100.077,166.242z"/>
					<path class="st41" d="M105.163,166.242h32.576c0.19,0,0.336,0.198,0.336,0.434v3.384c0,0.238-0.146,0.436-0.336,0.436h-32.576
						c-0.184,0-0.338-0.198-0.338-0.436v-3.384C104.825,166.44,104.979,166.242,105.163,166.242L105.163,166.242z"/>
					<path class="st41" d="M98.723,160.394h3.13c0.188,0,0.34,0.2,0.34,0.436v3.384c0,0.24-0.152,0.436-0.34,0.436h-3.13
						c-0.188,0-0.342-0.196-0.342-0.436v-3.384C98.381,160.594,98.535,160.394,98.723,160.394L98.723,160.394z"/>
					<path class="st41" d="M103.813,160.394h3.138c0.184,0,0.342,0.2,0.342,0.436v3.384c0,0.24-0.158,0.436-0.342,0.436h-3.138
						c-0.184,0-0.34-0.196-0.34-0.436v-3.384C103.473,160.594,103.629,160.394,103.813,160.394L103.813,160.394z"/>
					<path class="st41" d="M108.905,160.394h3.14c0.184,0,0.336,0.2,0.336,0.436v3.384c0,0.24-0.152,0.436-0.336,0.436h-3.14
						c-0.186,0-0.332-0.196-0.332-0.436v-3.384C108.573,160.594,108.719,160.394,108.905,160.394L108.905,160.394z"/>
					<path class="st41" d="M114.005,160.394h3.13c0.186,0,0.342,0.2,0.342,0.436v3.384c0,0.24-0.156,0.436-0.342,0.436h-3.13
						c-0.186,0-0.34-0.196-0.34-0.436v-3.384C113.665,160.594,113.819,160.394,114.005,160.394L114.005,160.394z"/>
					<path class="st41" d="M119.097,160.394h3.14c0.184,0,0.334,0.2,0.334,0.436v3.384c0,0.24-0.15,0.436-0.334,0.436h-3.14
						c-0.184,0-0.336-0.196-0.336-0.436v-3.384C118.761,160.594,118.913,160.394,119.097,160.394L119.097,160.394z"/>
					<path class="st41" d="M124.188,160.394h3.138c0.186,0,0.34,0.2,0.34,0.436v3.384c0,0.24-0.154,0.436-0.34,0.436h-3.138
						c-0.186,0-0.342-0.196-0.342-0.436v-3.384C123.847,160.594,124.003,160.394,124.188,160.394L124.188,160.394z"/>
					<path class="st41" d="M129.287,160.394h3.134c0.184,0,0.34,0.2,0.34,0.436v3.384c0,0.24-0.156,0.436-0.34,0.436h-3.134
						c-0.184,0-0.338-0.196-0.338-0.436v-3.384C128.949,160.594,129.103,160.394,129.287,160.394L129.287,160.394z"/>
					<path class="st41" d="M134.376,160.394h3.144c0.184,0,0.332,0.2,0.332,0.436v3.384c0,0.24-0.148,0.436-0.332,0.436h-3.144
						c-0.182,0-0.336-0.196-0.336-0.436v-3.384C134.041,160.594,134.195,160.394,134.376,160.394L134.376,160.394z"/>
					<path class="st41" d="M139.473,160.394h5.836c0.184,0,0.338,0.2,0.338,0.436v3.384c0,0.24-0.154,0.436-0.338,0.436h-5.836
						c-0.186,0-0.342-0.196-0.342-0.436v-3.384C139.131,160.594,139.287,160.394,139.473,160.394L139.473,160.394z"/>
					<path class="st41" d="M147.153,160.336h6.938c0.186,0,0.338,0.198,0.338,0.438v3.382c0,0.238-0.152,0.434-0.338,0.434h-6.938
						c-0.186,0-0.338-0.196-0.338-0.434v-3.382C146.814,160.534,146.967,160.336,147.153,160.336L147.153,160.336z"/>
					<path class="st41" d="M147.775,166.242h2.612c0.066,0,0.122,0.068,0.122,0.144v1.172c0,0.084-0.056,0.152-0.122,0.152h-2.612
						c-0.064,0-0.114-0.068-0.114-0.152v-1.172C147.661,166.31,147.71,166.242,147.775,166.242L147.775,166.242z"/>
					<path class="st41" d="M147.775,168.79h2.612c0.066,0,0.122,0.066,0.122,0.148v1.16c0,0.086-0.056,0.152-0.122,0.152h-2.612
						c-0.064,0-0.114-0.066-0.114-0.152v-1.16C147.661,168.856,147.71,168.79,147.775,168.79L147.775,168.79z"/>
					<path class="st41" d="M143.896,168.79h2.614c0.066,0,0.122,0.066,0.122,0.148v1.16c0,0.086-0.056,0.152-0.122,0.152h-2.614
						c-0.064,0-0.114-0.066-0.114-0.152v-1.16C143.783,168.856,143.833,168.79,143.896,168.79L143.896,168.79z"/>
					<path class="st41" d="M151.643,168.79h2.616c0.062,0,0.114,0.066,0.114,0.148v1.16c0,0.086-0.052,0.152-0.114,0.152h-2.616
						c-0.066,0-0.122-0.066-0.122-0.152v-1.16C151.521,168.856,151.577,168.79,151.643,168.79L151.643,168.79z"/>
					<path class="st41" d="M139.351,166.242h3.14c0.184,0,0.338,0.198,0.338,0.434v3.384c0,0.238-0.154,0.436-0.338,0.436h-3.14
						c-0.186,0-0.338-0.198-0.338-0.436v-3.384C139.013,166.44,139.165,166.242,139.351,166.242L139.351,166.242z"/>
				</g>
				<g id="Light_11_">
					<polygon class="st18" points="130.865,116.586 114.329,116.582 96.993,141.134 107.285,141.498 					"/>
					<polygon class="st18" points="139.061,116.608 117.495,141.13 119.813,141.128 146.985,116.59 					"/>
				</g>
			</g>
			<g>
				<path class="st44" d="M426.211,307.49H377.07c-1.968,0-3.567,1.592-3.567,3.565v26.546v26.553c0,1.191,0.59,2.246,1.492,2.896
					c0,0,0,0,0.002,0c0.096,0.068,0.189,0.128,0.29,0.188c0,0,0.01,0.008,0.018,0.01c0.092,0.052,0.188,0.102,0.288,0.146
					c0.01,0.009,0.024,0.013,0.038,0.021c0.092,0.038,0.186,0.076,0.28,0.11c0.02,0.006,0.042,0.016,0.065,0.02
					c0.086,0.03,0.178,0.052,0.272,0.074c0.027,0.008,0.054,0.018,0.077,0.023c0.095,0.019,0.188,0.032,0.28,0.042
					c0.032,0.004,0.061,0.013,0.088,0.017c0.124,0.01,0.25,0.02,0.376,0.02h49.141c1.97,0,3.567-1.596,3.567-3.565v-26.553v-26.546
					C429.778,309.082,428.181,307.49,426.211,307.49z"/>
				<g id="Envelop_1_">
					<g id="Envelop_2_">
						<path class="st43" d="M426.48,361.8c0,1.97-1.594,3.566-3.563,3.566h-49.139c-1.97,0-3.565-1.597-3.565-3.566v-53.098
							c0-1.972,1.596-3.572,3.565-3.572h49.139c1.97,0,3.563,1.601,3.563,3.572V361.8z"/>
						<path class="st24" d="M371.488,335.25h54.992l-20.109,14.412c0,0-16.347,3.718-19.17,1.636
							c-2.82-2.078-12.929-8.916-12.929-8.916L371.488,335.25z"/>
						<rect x="375.61" y="310.136" class="st8" width="45.473" height="49.778"/>
						<path class="st28" d="M371.488,335.25h-1.275v26.55c0,1.97,1.596,3.566,3.565,3.566h49.139c1.97,0,3.563-1.597,3.563-3.566
							v-26.55l-28.132,15.058L371.488,335.25z"/>
						<path class="st33" d="M373.778,365.366h49.139c1.97,0,3.563-1.597,3.563-3.566v-26.55l-28.132,15.058l-27.182,13.91
							C371.816,364.926,372.742,365.366,373.778,365.366z"/>
					</g>
					<g id="Text_1_" class="st27">
						<rect x="381.106" y="314.894" class="st39" width="36.559" height="1.337"/>
						<rect x="381.106" y="317.27" class="st39" width="36.559" height="1.337"/>
						<rect x="381.106" y="319.794" class="st39" width="36.559" height="1.338"/>
						<rect x="381.106" y="322.248" class="st39" width="36.559" height="1.336"/>
						<rect x="381.106" y="325.366" class="st39" width="36.559" height="1.34"/>
						<rect x="381.106" y="329.084" class="st39" width="36.559" height="1.334"/>
						<rect x="381.106" y="331.682" class="st39" width="36.559" height="1.338"/>
						<rect x="381.106" y="334.134" class="st39" width="36.559" height="1.34"/>
						<rect x="381.106" y="336.956" class="st39" width="36.559" height="1.342"/>
					</g>
				</g>
			</g>
			<g id="Mouse_1_">
				<path class="st11" d="M285.824,115.582c0,23.456-13.035,42.474-29.113,42.474c-16.082,0-29.114-19.018-29.114-42.474
					c0-23.46,13.032-42.476,29.114-42.476C272.789,73.106,285.824,92.122,285.824,115.582z"/>
				<ellipse class="st29" cx="256.71" cy="115.582" rx="27.559" ry="40.208"/>
				<path class="st45" d="M259.829,100.546c0,1.984-1.608,3.594-3.594,3.594l0,0c-1.98,0-3.588-1.61-3.588-3.594V90.82
					c0-1.982,1.608-3.59,3.588-3.59l0,0c1.986,0,3.594,1.608,3.594,3.59V100.546z"/>
				<path class="st6" d="M259.433,100.016c0,1.76-1.432,3.194-3.198,3.194l0,0c-1.766,0-3.194-1.434-3.194-3.194v-8.662
					c0-1.766,1.428-3.194,3.194-3.194l0,0c1.766,0,3.198,1.428,3.198,3.194V100.016z"/>
				<path class="st0" d="M285.824,115.582c0-23.46-13.035-42.476-29.113-42.476v84.95
					C272.789,158.056,285.824,139.038,285.824,115.582z"/>
			</g>
			<g id="Phone_1_">
				<path class="st15" d="M344.763,132.466c0,0.58-0.47,1.046-1.05,1.046l0,0c-0.574,0-1.044-0.466-1.044-1.046v-6.746
					c0-0.576,0.47-1.044,1.044-1.044l0,0c0.58,0,1.05,0.468,1.05,1.044V132.466z"/>
				<path class="st15" d="M344.763,143.858c0,0.58-0.47,1.048-1.05,1.048l0,0c-0.574,0-1.044-0.468-1.044-1.048v-6.74
					c0-0.58,0.47-1.048,1.044-1.048l0,0c0.58,0,1.05,0.468,1.05,1.048V143.858z"/>
				<path class="st15" d="M402.933,142.618c0,0.58-0.466,1.05-1.044,1.05l0,0c-0.578,0-1.046-0.47-1.046-1.05v-6.744
					c0-0.58,0.468-1.044,1.046-1.044l0,0c0.578,0,1.044,0.464,1.044,1.044V142.618z"/>
				<path class="st36" d="M401.955,208.466c0,3.082-2.496,5.578-5.578,5.578h-46.818c-3.082,0-5.584-2.496-5.584-5.578V123.51
					c0-3.082,2.502-5.58,5.584-5.58h46.818c3.082,0,5.578,2.498,5.578,5.58V208.466z"/>
				<rect x="349.719" y="125.964" class="st34" width="46.494" height="74.498"/>
				<path class="st12" d="M374.681,121.578c0,0.388-0.312,0.704-0.698,0.704h-9.936c-0.386,0-0.702-0.316-0.702-0.704l0,0
					c0-0.384,0.316-0.702,0.702-0.702h9.936C374.369,120.876,374.681,121.194,374.681,121.578L374.681,121.578z"/>
				<path class="st12" d="M377.997,121.578c0,0.388-0.314,0.704-0.704,0.704h-0.652c-0.386,0-0.696-0.316-0.696-0.704l0,0
					c0-0.384,0.311-0.702,0.696-0.702h0.652C377.683,120.876,377.997,121.194,377.997,121.578L377.997,121.578z"/>
				<path class="st20" d="M375.373,151.964l3.14,3.15l-10.286,10.266l-3.138-3.15c-1.809,2.088-2.349,4.564-1.172,5.74l0.768,0.772
					c1.272,1.276,4.074,0.544,6.254-1.634l9.3-9.282c2.183-2.178,2.916-4.978,1.648-6.254l-0.772-0.768
					C379.938,149.626,377.461,150.166,375.373,151.964z"/>
				<g>
					<path class="st38" d="M362.085,175.302c0.21-0.046,0.546-0.08,0.884-0.08c0.488,0,0.798,0.084,1.034,0.274
						c0.195,0.144,0.313,0.368,0.313,0.662c0,0.366-0.24,0.68-0.636,0.828v0.012c0.354,0.088,0.774,0.382,0.774,0.94
						c0,0.324-0.129,0.572-0.316,0.756c-0.264,0.238-0.688,0.352-1.3,0.352c-0.334,0-0.592-0.024-0.754-0.046V175.302z
						 M362.57,176.838h0.438c0.516,0,0.813-0.264,0.813-0.626c0-0.444-0.332-0.616-0.821-0.616c-0.225,0-0.353,0.018-0.431,0.034
						V176.838z M362.57,178.642c0.093,0.014,0.232,0.022,0.406,0.022c0.502,0,0.966-0.182,0.966-0.732
						c0-0.51-0.439-0.724-0.974-0.724h-0.398V178.642z"/>
					<path class="st38" d="M367.351,178.274c0,0.28,0.006,0.524,0.022,0.736h-0.437l-0.028-0.44h-0.01
						c-0.124,0.218-0.414,0.502-0.892,0.502c-0.422,0-0.933-0.234-0.933-1.182v-1.58h0.49v1.496c0,0.516,0.16,0.858,0.604,0.858
						c0.328,0,0.558-0.228,0.647-0.448c0.028-0.068,0.044-0.156,0.044-0.25v-1.656h0.49V178.274z"/>
					<path class="st38" d="M368.101,178.51c0.146,0.094,0.4,0.194,0.646,0.194c0.357,0,0.523-0.178,0.523-0.402
						c0-0.234-0.138-0.364-0.502-0.496c-0.485-0.172-0.716-0.442-0.716-0.764c0-0.438,0.355-0.792,0.934-0.792
						c0.276,0,0.511,0.076,0.666,0.166l-0.124,0.358c-0.105-0.068-0.302-0.156-0.554-0.156c-0.29,0-0.45,0.168-0.45,0.368
						c0,0.222,0.16,0.324,0.513,0.456c0.47,0.182,0.708,0.414,0.708,0.82c0,0.468-0.368,0.804-1.009,0.804
						c-0.296,0-0.569-0.074-0.76-0.184L368.101,178.51z"/>
					<path class="st38" d="M370.925,175.55c0.004,0.168-0.118,0.304-0.313,0.304c-0.174,0-0.294-0.136-0.294-0.304
						c0-0.17,0.128-0.304,0.307-0.304C370.807,175.246,370.925,175.38,370.925,175.55z M370.377,179.01v-2.7h0.492v2.7H370.377z"/>
					<path class="st38" d="M371.685,177.042c0-0.28-0.006-0.51-0.023-0.732h0.434l0.028,0.446h0.012
						c0.134-0.256,0.448-0.506,0.89-0.506c0.378,0,0.958,0.22,0.958,1.148v1.612h-0.494v-1.556c0-0.436-0.159-0.796-0.624-0.796
						c-0.323,0-0.573,0.228-0.657,0.502c-0.021,0.06-0.03,0.142-0.03,0.228v1.622h-0.492V177.042z"/>
					<path class="st38" d="M374.78,177.042c0-0.28-0.008-0.51-0.023-0.732h0.436l0.028,0.446h0.012
						c0.132-0.256,0.446-0.506,0.893-0.506c0.376,0,0.954,0.22,0.954,1.148v1.612h-0.492v-1.556c0-0.436-0.16-0.796-0.624-0.796
						c-0.326,0-0.572,0.228-0.658,0.502c-0.021,0.06-0.034,0.142-0.034,0.228v1.622h-0.49V177.042z"/>
					<path class="st38" d="M378.148,177.752c0.015,0.662,0.438,0.934,0.928,0.934c0.353,0,0.564-0.06,0.748-0.14l0.084,0.352
						c-0.174,0.08-0.468,0.168-0.897,0.168c-0.832,0-1.328-0.548-1.328-1.362s0.48-1.454,1.266-1.454
						c0.883,0,1.116,0.776,1.116,1.274c0,0.1-0.014,0.174-0.016,0.228H378.148z M379.591,177.398
						c0.004-0.312-0.13-0.796-0.683-0.796c-0.493,0-0.712,0.456-0.752,0.796H379.591z"/>
					<path class="st38" d="M380.608,178.51c0.145,0.094,0.398,0.194,0.645,0.194c0.359,0,0.525-0.178,0.525-0.402
						c0-0.234-0.14-0.364-0.5-0.496c-0.485-0.172-0.716-0.442-0.716-0.764c0-0.438,0.353-0.792,0.93-0.792
						c0.276,0,0.515,0.076,0.664,0.166l-0.121,0.358c-0.104-0.068-0.301-0.156-0.555-0.156c-0.288,0-0.447,0.168-0.447,0.368
						c0,0.222,0.159,0.324,0.51,0.456c0.472,0.182,0.708,0.414,0.708,0.82c0,0.468-0.364,0.804-1.009,0.804
						c-0.296,0-0.569-0.074-0.758-0.184L380.608,178.51z"/>
					<path class="st38" d="M362.57,181.948v3.758h-0.485v-3.758H362.57z"/>
					<path class="st38" d="M363.457,183.738c0-0.276-0.004-0.508-0.024-0.73h0.437l0.027,0.448h0.012
						c0.135-0.258,0.448-0.512,0.893-0.512c0.374,0,0.954,0.226,0.954,1.152v1.61h-0.49v-1.554c0-0.436-0.162-0.798-0.624-0.798
						c-0.324,0-0.578,0.228-0.66,0.502c-0.023,0.062-0.032,0.146-0.032,0.23v1.62h-0.491V183.738z"/>
					<path class="st38" d="M368.48,185.606c-0.13,0.068-0.412,0.16-0.777,0.16c-0.813,0-1.345-0.556-1.345-1.38
						c0-0.832,0.57-1.434,1.45-1.434c0.292,0,0.548,0.072,0.682,0.14l-0.111,0.38c-0.116-0.068-0.298-0.132-0.57-0.132
						c-0.618,0-0.954,0.46-0.954,1.024c0,0.626,0.404,1.01,0.938,1.01c0.277,0,0.46-0.076,0.604-0.136L368.48,185.606z"/>
					<path class="st38" d="M371.465,184.336c0,0.996-0.692,1.434-1.344,1.434c-0.732,0-1.295-0.534-1.295-1.39
						c0-0.906,0.593-1.436,1.341-1.436C370.938,182.944,371.465,183.51,371.465,184.336z M369.322,184.364
						c0,0.59,0.343,1.038,0.818,1.038c0.472,0,0.822-0.442,0.822-1.05c0-0.456-0.232-1.038-0.811-1.038
						C369.572,183.314,369.322,183.85,369.322,184.364z"/>
					<path class="st38" d="M372.087,183.738c0-0.276-0.006-0.508-0.026-0.73h0.432l0.022,0.434h0.019
						c0.147-0.256,0.399-0.498,0.846-0.498c0.368,0,0.647,0.226,0.764,0.544h0.014c0.082-0.15,0.188-0.27,0.297-0.352
						c0.166-0.122,0.344-0.192,0.598-0.192c0.357,0,0.89,0.238,0.89,1.174v1.588h-0.479v-1.528c0-0.52-0.19-0.832-0.588-0.832
						c-0.276,0-0.496,0.208-0.58,0.448c-0.021,0.07-0.036,0.156-0.036,0.246v1.666h-0.482v-1.616c0-0.432-0.188-0.744-0.563-0.744
						c-0.307,0-0.53,0.248-0.606,0.492c-0.03,0.072-0.038,0.156-0.038,0.242v1.626h-0.479V183.738z"/>
					<path class="st38" d="M377.283,182.25c0.01,0.164-0.114,0.298-0.309,0.298c-0.172,0-0.296-0.134-0.296-0.298
						c0-0.176,0.128-0.31,0.306-0.31C377.169,181.94,377.283,182.074,377.283,182.25z M376.742,185.706v-2.698h0.488v2.698H376.742z
						"/>
					<path class="st38" d="M378.047,183.738c0-0.276-0.006-0.508-0.024-0.73h0.435l0.027,0.448h0.013
						c0.136-0.258,0.443-0.512,0.894-0.512c0.372,0,0.954,0.226,0.954,1.152v1.61h-0.492v-1.554c0-0.436-0.162-0.798-0.624-0.798
						c-0.326,0-0.578,0.228-0.658,0.502c-0.023,0.062-0.031,0.146-0.031,0.23v1.62h-0.492V183.738z"/>
					<path class="st38" d="M383.469,183.008c-0.01,0.194-0.022,0.414-0.022,0.742v1.566c0,0.622-0.122,0.998-0.386,1.234
						c-0.262,0.244-0.64,0.324-0.979,0.324c-0.326,0-0.683-0.08-0.898-0.224l0.122-0.372c0.176,0.11,0.456,0.208,0.792,0.208
						c0.5,0,0.87-0.26,0.87-0.94v-0.302h-0.01c-0.152,0.254-0.444,0.454-0.86,0.454c-0.67,0-1.15-0.57-1.15-1.318
						c0-0.916,0.597-1.436,1.217-1.436c0.47,0,0.728,0.248,0.842,0.47h0.012l0.024-0.406H383.469z M382.959,184.074
						c0-0.084-0.002-0.156-0.024-0.224c-0.09-0.284-0.33-0.518-0.688-0.518c-0.469,0-0.803,0.394-0.803,1.02
						c0,0.53,0.267,0.968,0.798,0.968c0.301,0,0.572-0.186,0.681-0.5c0.028-0.082,0.036-0.178,0.036-0.26V184.074z"/>
					<path class="st38" d="M364.709,192.282c-0.176,0.088-0.532,0.176-0.988,0.176c-1.063,0-1.86-0.668-1.86-1.9
						c0-1.176,0.798-1.976,1.962-1.976c0.471,0,0.767,0.104,0.893,0.168l-0.114,0.396c-0.184-0.09-0.45-0.156-0.76-0.156
						c-0.88,0-1.464,0.564-1.464,1.552c0,0.922,0.527,1.508,1.443,1.508c0.297,0,0.597-0.06,0.794-0.152L364.709,192.282z"/>
					<path class="st38" d="M365.953,191.222l-0.393,1.184h-0.502l1.278-3.76h0.584l1.284,3.76h-0.519l-0.403-1.184H365.953z
						 M367.183,190.842l-0.366-1.082c-0.084-0.244-0.142-0.47-0.195-0.686h-0.013c-0.054,0.224-0.113,0.452-0.189,0.68l-0.366,1.088
						H367.183z"/>
					<path class="st38" d="M368.759,188.646h0.481v3.35h1.61v0.41h-2.092V188.646z"/>
					<path class="st38" d="M371.396,188.646h0.482v3.35h1.605v0.41h-2.088V188.646z"/>
					<path class="st38" d="M375.076,192.11c0-0.2,0.141-0.346,0.337-0.346c0.193,0,0.325,0.146,0.325,0.346
						c0,0.204-0.128,0.356-0.336,0.356C375.209,192.466,375.076,192.314,375.076,192.11z"/>
					<path class="st38" d="M376.232,192.11c0-0.2,0.141-0.346,0.334-0.346c0.194,0,0.328,0.146,0.328,0.346
						c0,0.204-0.126,0.356-0.334,0.356C376.364,192.466,376.232,192.314,376.232,192.11z"/>
					<path class="st38" d="M377.387,192.11c0-0.2,0.138-0.346,0.336-0.346c0.194,0,0.328,0.146,0.328,0.346
						c0,0.204-0.128,0.356-0.334,0.356C377.522,192.466,377.387,192.314,377.387,192.11z"/>
				</g>
			</g>
			<g id="Blooming_2_">
				<path class="st43" d="M266.621,432.229c-4.515-3.988-2.456-13.295-2.456-13.295h-6.732h-6.73c0,0,2.052,9.307-2.462,13.295
					c-4.514,3.989-9.794,3.989-9.794,3.989v2.242h18.986h18.982v-2.242C276.415,436.218,271.139,436.218,266.621,432.229z"/>
				<rect x="238.447" y="436.218" class="st4" width="37.968" height="2.242"/>
				<path class="st32" d="M307.608,412.954c0,3.304-2.68,5.979-5.979,5.979h-88.394c-3.302,0-5.984-2.676-5.984-5.979v-48.848
					c0-3.307,2.682-5.982,5.984-5.982h88.394c3.3,0,5.979,2.676,5.979,5.982V412.954z"/>
				<path class="st16" d="M207.25,364.106v48.848c0,1.16,0.338,2.24,0.91,3.156h98.542c0.569-0.916,0.905-1.996,0.905-3.156v-48.848
					c0-1.549-0.594-2.956-1.558-4.017h-97.238C207.845,361.15,207.25,362.558,207.25,364.106z"/>
				<rect x="211.573" y="362.112" class="st2" width="91.716" height="51.922"/>
				<rect x="220.671" y="395.344" class="st26" width="9.79" height="18.69"/>
				<rect x="237.285" y="389.706" class="st22" width="9.792" height="24.328"/>
				<rect x="254.045" y="377.836" class="st46" width="9.792" height="36.198"/>
				<rect x="271.551" y="371.608" class="st5" width="9.792" height="42.426"/>
				<rect x="288.253" y="365.063" class="st3" width="9.786" height="48.1"/>
				<g>
					<g>
						<polygon class="st36" points="218.101,402.846 217.199,401.638 245.665,380.288 276.175,377.106 297.658,364.412 
							298.421,365.71 276.652,378.57 246.232,381.744 						"/>
					</g>
					<circle class="st25" cx="217.649" cy="402.24" r="2.448"/>
					<circle class="st25" cx="245.951" cy="381.016" r="2.446"/>
					<circle class="st25" cx="276.414" cy="377.836" r="2.447"/>
					<circle class="st25" cx="298.041" cy="365.063" r="2.448"/>
				</g>
			</g>
		</g>
	</g>
</g>
</svg>
